<svg width="24" height="24" viewBox="0 0 24 24" fill="none" xmlns="http://www.w3.org/2000/svg">
<path d="M10.8049 15.5822L16.4664 9.92068L15.579 9.03324L10.8049 13.8073L8.40485 11.4073L7.51742 12.2948L10.8049 15.5822ZM12.0014 20C10.8949 20 9.85491 19.7901 8.88132 19.3701C7.90772 18.9502 7.06082 18.3803 6.34064 17.6604C5.62044 16.9406 5.05028 16.094 4.63017 15.1209C4.21006 14.1477 4 13.1079 4 12.0014C4 10.895 4.20997 9.85494 4.6299 8.88135C5.04983 7.90775 5.61972 7.06085 6.33959 6.34067C7.05946 5.62047 7.90598 5.05031 8.87915 4.6302C9.8523 4.21009 10.8921 4.00003 11.9986 4.00003C13.1051 4.00003 14.1451 4.21 15.1187 4.62993C16.0923 5.04986 16.9392 5.61975 17.6594 6.33962C18.3796 7.05949 18.9497 7.90601 19.3698 8.87918C19.7899 9.85233 20 10.8921 20 11.9986C20 13.1051 19.79 14.1451 19.3701 15.1187C18.9502 16.0923 18.3803 16.9392 17.6604 17.6594C16.9405 18.3796 16.094 18.9497 15.1209 19.3699C14.1477 19.79 13.1079 20 12.0014 20Z" fill="#304DB0"/>
</svg>
